<?xml version="1.0" encoding="iso-8859-1"?>
<!-- Uploaded to: SVG Repo, www.svgrepo.com, Generator: SVG Repo Mixer Tools -->
<svg height="800px" width="800px" version="1.1" id="Layer_1" xmlns="http://www.w3.org/2000/svg" xmlns:xlink="http://www.w3.org/1999/xlink" 
	 viewBox="0 0 512 512" xml:space="preserve">
<path style="fill:#FFD3AE;" d="M357.785,167.01c0,0,34.677,151.528-17.052,164.634c-29.953,7.589-53.484,1.628-67.985-4.734
	c-10.494-4.604-22.132-4.604-32.626,0c-14.502,6.362-38.031,12.324-67.985,4.734c-51.729-13.105-17.052-164.634-17.052-164.634"/>
<path style="fill:#E2B08F;" d="M366.045,215.86c-72.852,6.775-146.369,6.775-219.221,0c3.366-27.432,8.265-48.85,8.265-48.85H357.78
	C357.779,167.008,362.678,188.427,366.045,215.86z"/>
<path style="fill:#8CC63F;" d="M362.81,184.691c1.01,0.142-23.667-71.964,11.229-168.183c-78.092-9.865-157.116-9.865-235.209,0
	c34.896,96.219,10.218,168.326,11.229,168.183"/>
<path style="fill:#A67C52;" d="M297.919,190.002c21.729-0.75,43.448-2.101,65.102-4.063l-0.107-1.254
	c0.557,0.086-6.614-21.558-7.45-56.976h-0.032h-24.637h-24.095H157.66h-0.054c-0.836,35.429-7.997,57.062-7.44,56.976l-0.107,1.254
	c21.654,1.962,43.373,3.312,65.112,4.063C211.152,187.223,301.929,187.224,297.919,190.002z"/>
<path style="fill:#EF602E;" d="M377.827,270.283l16.08,106.116l-24.12-2.68l-21.44,71.823h-38.581l-53.331,59.495l-53.331-59.495
	h-38.581l-21.44-71.823l-24.12,2.68l16.08-106.116h-27.336l22.651-56.065l10.795-26.714l30.219,0.172c0,0-3.291,12.628-6.014,29.758
	c-4.095,25.792-6.882,61.779,4.867,80.206c3.623,5.692,8.651,9.712,15.458,11.224c25.138,5.596,44.895,1.201,57.062-3.484
	c8.812-3.387,18.578-3.387,27.379,0c12.178,4.685,31.924,9.08,57.062,3.484c28.804-6.389,25.685-57.651,20.325-91.43
	c-2.712-17.13-6.014-29.758-6.014-29.758l30.219-0.172l10.795,26.714l22.651,56.065H377.827z"/>
<path style="fill:#7EAF31;" d="M195.972,11.069c-19.083,1.233-38.14,3.038-57.141,5.438
	c34.895,96.219,10.218,168.327,11.228,168.183h56.067C207.135,144.777,207.024,71.401,195.972,11.069z"/>
<g>
	<path style="fill:#DB4E23;" d="M141.153,187.505l30.219,0.172c0,0-3.291,12.628-6.014,29.758c-11.685-0.89-23.348-1.972-35-3.216
		L141.153,187.505z"/>
	<path style="fill:#DB4E23;" d="M203.103,445.542h-38.581l-21.44-71.823l-24.12,2.68l16.08-106.116h-27.336l22.651-56.065
		l10.795-26.714l30.219,0.172c0,0-3.291,12.628-6.014,29.758c-4.095,25.792-6.882,61.779,4.867,80.206l4.202,65.895h25.728
		L203.103,445.542z"/>
</g>
<path style="fill:#936841;" d="M157.51,127.709c-0.838,35.421-8.005,57.06-7.45,56.981h56.067c0.381-15.06,0.6-34.889,0.135-56.981
	H157.51z"/>
<path style="fill:#DB4E23;" d="M382.51,214.219c-11.652,1.244-23.316,2.326-35,3.216c-2.712-17.13-6.014-29.758-6.014-29.758
	l30.219-0.172L382.51,214.219z"/>
<path style="fill:#FDBB00;" d="M306.698,127.709v45.527c0,6.946-3.473,13.089-8.78,16.766c-27.572,0.965-55.175,0.965-82.747,0
	c-5.317-3.677-8.79-9.809-8.79-16.766v-45.527v-2.198c0-11.267,9.133-20.4,20.4-20.4h59.527c11.267,0,20.389,9.133,20.389,20.4
	L306.698,127.709L306.698,127.709z M283.114,170.053v-41.357h-53.16v41.357H283.114z"/>
<path d="M466.511,170.819c-0.762-4.376-4.926-7.3-9.301-6.541c-29.32,5.108-58.731,9.093-88.193,11.957
	c-9.004-39.971-6.404-77.049-2.562-101.339c0.693-4.385-2.299-8.504-6.685-9.198c-4.377-0.693-8.503,2.299-9.198,6.685
	c-2.47,15.613-3.718,31.038-3.786,46.213H313.59c-2.701-12.888-14.148-22.597-27.822-22.597H226.24
	c-13.68,0-25.132,9.709-27.834,22.597h-33.269c-0.151-31.893-5.494-64.663-15.894-96.376c70.895-8.189,142.615-8.188,213.511,0
	c-2.855,8.684-5.345,17.464-7.43,26.207c-1.03,4.319,1.636,8.655,5.955,9.685c4.32,1.033,8.655-1.636,9.685-5.956
	c2.711-11.365,6.141-22.799,10.199-33.982c0.833-2.297,0.576-4.849-0.698-6.934s-3.427-3.478-5.852-3.784
	c-78.705-9.943-158.52-9.943-237.224,0c-2.425,0.307-4.578,1.698-5.852,3.784c-1.275,2.085-1.531,4.636-0.698,6.934
	c19.031,52.473,23.306,108.473,12.138,158.058c-29.46-2.864-58.869-6.849-88.187-11.957c-4.373-0.768-8.538,2.166-9.301,6.541
	c-0.762,4.375,2.166,8.538,6.541,9.301c25.984,4.527,52.039,8.176,78.137,10.965l-30.349,75.112
	c-1.001,2.478-0.705,5.292,0.789,7.507s3.993,3.544,6.666,3.544h17.984l-14.682,96.879c-0.374,2.47,0.421,4.974,2.153,6.776
	c1.731,1.801,4.2,2.695,6.685,2.419l17.447-1.939l4.413,14.783c1.041,3.487,4.239,5.742,7.701,5.742
	c0.761,0,1.536-0.109,2.303-0.338c4.255-1.27,6.674-5.749,5.404-10.004l-6.333-21.216c-1.112-3.724-4.725-6.124-8.592-5.691
	l-13.713,1.524l14.51-95.77c0.351-2.317-0.326-4.67-1.853-6.447c-1.528-1.776-3.753-2.798-6.096-2.798h-15.414l27.649-68.43
	c4.706,0.436,9.413,0.844,14.121,1.223c-1.769,8.114-4.216,20.717-5.859,34.785c-3.854,32.985-1.334,57.032,7.49,71.474
	c5.057,8.276,12.094,13.466,20.918,15.427c9.016,2.004,17.397,2.812,25.058,2.812c15.373,0,27.835-3.257,36.631-6.642
	c6.968-2.681,14.641-2.681,21.606,0c13.18,5.072,34.58,9.855,61.689,3.83c8.824-1.961,15.861-7.151,20.918-15.427
	c8.824-14.442,11.345-38.489,7.491-71.474c-1.643-14.068-4.091-26.671-5.859-34.785c4.708-0.379,9.415-0.787,14.121-1.223
	l27.649,68.43h-15.414c-2.343,0-4.569,1.022-6.096,2.798c-1.528,1.776-2.205,4.13-1.853,6.447l14.509,95.77l-13.713-1.524
	c-3.865-0.431-7.48,1.967-8.592,5.691l-19.726,66.08h-32.599c-2.285,0-4.462,0.972-5.987,2.674l-47.34,52.814l-47.34-52.814
	c-1.525-1.701-3.703-2.674-5.987-2.674h-32.599l-6.403-21.447c-1.27-4.255-5.75-6.677-10.004-5.405
	c-4.255,1.27-6.675,5.749-5.405,10.004l8.116,27.188c1.016,3.407,4.15,5.74,7.704,5.74h34.999l50.93,56.818
	c1.525,1.701,3.703,2.674,5.987,2.674c2.285,0,4.462-0.972,5.987-2.674l50.931-56.818h34.998c3.554,0,6.687-2.334,7.704-5.739
	l19.52-65.388l17.447,1.939c2.477,0.275,4.953-0.619,6.684-2.419c1.731-1.802,2.527-4.306,2.153-6.776l-14.678-96.878h17.984
	c2.672,0,5.17-1.328,6.666-3.544c1.495-2.216,1.79-5.03,0.789-7.507l-30.349-75.112c26.098-2.789,52.152-6.438,78.136-10.965
	C464.345,179.358,467.273,175.193,466.511,170.819z M312.995,180.313c0.783-2.614,1.202-5.352,1.202-8.148v-37.487h32.961
	c0.764,14.623,2.675,28.977,5.72,43.002C339.591,178.786,326.295,179.662,312.995,180.313z M213.879,124.441
	c0-6.816,5.544-12.36,12.36-12.36h59.527c6.809,0,12.349,5.544,12.349,12.36v47.725c0,3.404-1.416,6.615-3.839,8.928
	c-25.513,0.838-51.039,0.838-76.553,0c-2.427-2.311-3.845-5.523-3.845-8.928L213.879,124.441L213.879,124.441z M164.766,134.677
	H197.8v37.487c0,2.796,0.419,5.535,1.202,8.148c-13.297-0.651-26.587-1.527-39.87-2.633
	C162.146,163.737,164.018,149.338,164.766,134.677z M335.684,291.841c-2.768,4.528-6.163,7.104-10.682,8.109
	c-23.191,5.153-41.309,1.137-52.424-3.141c-10.691-4.114-22.467-4.114-33.157,0c-11.114,4.278-29.231,8.294-52.425,3.141
	c-4.52-1.004-7.913-3.582-10.681-8.109c-12.811-20.958-4.821-71.927,0.823-96.68c26.269,1.755,52.566,2.644,78.862,2.644
	c26.297,0,52.593-0.888,78.862-2.644C340.504,219.914,348.496,270.883,335.684,291.841z"/>
<path d="M206.153,230.618c-4.44,0-8.04,3.6-8.04,8.04V267.6c0,4.44,3.6,8.04,8.04,8.04s8.04-3.6,8.04-8.04v-28.943
	C214.193,234.217,210.593,230.618,206.153,230.618z"/>
<path d="M305.843,275.64c4.441,0,8.04-3.6,8.04-8.04v-28.943c0-4.44-3.599-8.04-8.04-8.04s-8.04,3.6-8.04,8.04V267.6
	C297.803,272.04,301.402,275.64,305.843,275.64z"/>
<path d="M292.951,343.989c3.14-3.14,3.14-8.231,0-11.369c-3.141-3.14-8.231-3.14-11.371,0c-14.104,14.105-37.057,14.106-51.163,0
	c-3.14-3.14-8.231-3.14-11.369,0c-3.14,3.14-3.14,8.231,0,11.369c10.187,10.187,23.57,15.281,36.951,15.281
	C269.381,359.27,282.763,354.177,292.951,343.989z"/>
<path d="M234.821,172.818h42.354c4.441,0,8.04-3.6,8.04-8.04v-32.95c0-4.44-3.599-8.04-8.04-8.04h-42.354
	c-4.44,0-8.04,3.6-8.04,8.04v32.95C226.781,169.219,230.381,172.818,234.821,172.818z M242.861,139.869h26.274v16.87h-26.274
	V139.869z"/>
</svg>